HIERARCHY
ROOT Hips
{
	OFFSET 0.000000 88.474243 0.000000
	CHANNELS 6 Xposition Yposition Zposition Zrotation Yrotation Xrotation 
	JOINT Hips_Spine
	{
		OFFSET 0.000000 0.000000 0.000000
		CHANNELS 3 Zrotation Yrotation Xrotation
		JOINT Spine
		{
			OFFSET 0.005100 8.711998 -0.691000
			CHANNELS 3 Zrotation Yrotation Xrotation
			JOINT Spine1
			{
				OFFSET -0.009200 8.660301 -1.275000
				CHANNELS 3 Zrotation Yrotation Xrotation
				JOINT Spine2
				{
					OFFSET 0.006300 9.852501 -1.857000
					CHANNELS 3 Zrotation Yrotation Xrotation
					JOINT Spine2_Neck
					{
						OFFSET 0.000000 0.000000 0.000000
						CHANNELS 3 Zrotation Yrotation Xrotation
						JOINT Neck
						{
							OFFSET 0.016300 11.420799 -0.263300
							CHANNELS 3 Zrotation Yrotation Xrotation
							End Site #name: Head
							{
								OFFSET -0.019200 9.262405 2.362500
							}
						}
					}
					JOINT Spine2_LeftShoulder
					{
						OFFSET 0.000000 0.000000 0.000000
						CHANNELS 3 Zrotation Yrotation Xrotation
						JOINT LeftShoulder
						{
							OFFSET 5.616900 6.732201 -0.345700
							CHANNELS 3 Zrotation Yrotation Xrotation
							JOINT LeftArm
							{
								OFFSET 10.664888 -0.183372 -2.440700
								CHANNELS 3 Zrotation Yrotation Xrotation
								JOINT LeftForeArm
								{
									OFFSET 27.459126 0.000000 0.000000
									CHANNELS 3 Zrotation Yrotation Xrotation
									End Site #name: LeftHand
									{
										OFFSET 21.306858 0.000000 0.000000
									}
								}
							}
						}
					}
					JOINT Spine2_RightShoulder
					{
						OFFSET 0.000000 0.000000 0.000000
						CHANNELS 3 Zrotation Yrotation Xrotation
						JOINT RightShoulder
						{
							OFFSET -5.580300 6.737503 -0.344400
							CHANNELS 3 Zrotation Yrotation Xrotation
							JOINT RightArm
							{
								OFFSET -10.679335 -0.188484 -2.383900
								CHANNELS 3 Zrotation Yrotation Xrotation
								JOINT RightForeArm
								{
									OFFSET -27.503529 0.000000 0.000000
									CHANNELS 3 Zrotation Yrotation Xrotation
									End Site #name: RightHand
									{
										OFFSET -21.306808 0.000000 0.000000
									}
								}
							}
						}
					}
				}
			}
		}
	}
	JOINT Hips_LeftUpLeg
	{
		OFFSET 0.000000 0.000000 0.000000
		CHANNELS 3 Zrotation Yrotation Xrotation
		JOINT LeftUpLeg
		{
			OFFSET 6.857700 -6.739601 0.312100
			CHANNELS 3 Zrotation Yrotation Xrotation
			JOINT LeftLeg
			{
				OFFSET -0.367590 -34.731552 -4.572400
				CHANNELS 3 Zrotation Yrotation Xrotation
				End Site #name: LeftFoot
				{
					OFFSET 0.367590 -34.656704 -6.067400
				}
			}
		}
	}
	JOINT Hips_RightUpLeg
	{
		OFFSET 0.000000 0.000000 0.000000
		CHANNELS 3 Zrotation Yrotation Xrotation
		JOINT RightUpLeg
		{
			OFFSET -6.876100 -6.733299 0.301000
			CHANNELS 3 Zrotation Yrotation Xrotation
			JOINT RightLeg
			{
				OFFSET 0.347353 -34.795158 -4.515900
				CHANNELS 3 Zrotation Yrotation Xrotation
				End Site #name: RightFoot
				{
					OFFSET -0.347353 -34.589367 -6.070300
				}
			}
		}
	}
}
MOTION
Frames: 15
Frame Time: 0.041667
2.858642 1.061061 -5.141497 175.037240 -17.406532 -178.226066 0.000000 -0.000000 0.000000 -7.017273 -0.370751 3.829637 0.545685 -2.033858 -0.932641 0.000000 0.000000 0.000000 1.002654 -1.772344 -0.416506 2.823151 -31.910164 -4.152758 -0.050678 -1.580860 -1.612824 1.806341 -7.544455 1.070982 -86.083320 -22.029073 11.795703 3.421660 -18.253203 -0.120752 0.345002 -2.428565 -0.938057 16.076930 13.517714 4.048143 55.279947 7.646620 9.667576 -0.356868 45.910517 4.321869 0.000000 0.000000 0.000000 -3.237663 14.347892 -3.707894 0.529219 -39.634240 -16.862914 0.000000 0.000000 -0.000000 -3.063318 -54.276753 -12.002505 -11.517075 -5.107345 22.920963 
2.920350 1.130123 -5.274043 174.976777 -16.429172 -178.210543 0.000000 -0.000000 0.000000 -7.318278 -0.167277 4.017156 0.562856 -1.890540 -1.072872 0.000000 0.000000 0.000000 0.979510 -1.707637 -0.543733 2.489556 -30.862044 -4.617356 -0.040373 -1.493314 -1.688442 1.869506 -7.813051 1.111507 -85.854289 -22.214689 12.076525 3.314550 -19.521206 -0.356220 0.373039 -2.328143 -1.083159 15.665822 13.468274 4.105060 55.288377 7.532491 10.072170 -0.859644 45.644933 3.779963 0.000000 0.000000 0.000000 -3.279124 14.078215 -4.301041 0.288357 -39.402250 -16.158818 0.000000 0.000000 -0.000000 -2.956911 -53.686376 -11.859820 -10.840918 -3.966893 22.430464 
2.983786 1.199257 -5.401652 174.862459 -15.525887 -178.179716 -0.000000 -0.000000 0.000000 -7.607778 0.100421 4.304921 0.563429 -1.724801 -1.198710 0.000000 0.000000 0.000000 0.954119 -1.625107 -0.673510 2.195121 -29.793601 -5.287985 -0.030217 -1.388882 -1.756247 1.926963 -8.039360 1.145882 -85.569485 -22.394429 12.295219 3.239445 -21.081964 -0.608657 0.397507 -2.210507 -1.217116 15.254165 13.408289 4.156466 55.304412 7.458146 10.468986 -1.164690 45.370625 3.339603 0.000000 0.000000 0.000000 -3.326340 13.755699 -4.890158 0.034228 -39.182506 -15.457127 0.000000 0.000000 -0.000000 -2.889038 -53.243711 -11.666993 -10.243560 -2.896201 21.987040 
3.049423 1.265924 -5.526014 174.692066 -14.844549 -178.131768 -0.000000 -0.000000 0.000000 -7.881219 0.339923 4.592955 0.531492 -1.547877 -1.281722 0.000000 0.000000 0.000000 0.922955 -1.535870 -0.795795 2.139582 -28.681366 -6.257775 -0.031329 -1.273508 -1.786748 1.977436 -8.223976 1.174940 -85.243704 -22.572132 12.454372 3.261379 -22.800320 -0.739697 0.405460 -2.081349 -1.315339 14.875413 13.354340 4.200958 55.324064 7.419376 10.728058 -1.415970 45.098917 2.923330 0.000000 0.000000 -0.000000 -3.375994 13.363435 -5.459517 -0.236849 -38.971605 -14.756989 0.000000 0.000000 -0.000000 -2.923397 -53.164482 -11.368465 -9.670900 -1.982169 21.503564 
3.117625 1.327460 -5.649074 174.496157 -14.338801 -178.065560 -0.000000 -0.000000 0.000000 -8.150397 0.534237 4.896018 0.469587 -1.413359 -1.349197 0.000000 0.000000 0.000000 0.885358 -1.451512 -0.905476 2.383962 -27.329115 -7.501498 -0.048119 -1.153158 -1.784321 2.021954 -8.365063 1.193957 -84.934246 -22.704945 12.599177 3.328076 -24.678928 -0.855946 0.388931 -1.948283 -1.367793 14.545646 13.347718 4.224740 55.317180 7.402474 10.832964 -1.630280 44.939947 2.683042 0.000000 0.000000 -0.000000 -3.429656 12.929339 -6.013932 -0.521030 -38.781480 -14.058866 0.000000 0.000000 -0.000000 -3.102787 -53.508674 -10.991213 -9.093175 -1.161470 21.150435 
3.191152 1.383848 -5.771089 174.270472 -14.041722 -177.979794 -0.000000 -0.000000 0.000000 -8.446396 0.705213 5.182975 0.375083 -1.283752 -1.373665 0.000000 0.000000 0.000000 0.839607 -1.381111 -0.990382 2.313614 -25.632780 -8.768601 -0.077057 -1.037355 -1.760961 2.049939 -8.493595 1.228434 -84.625641 -22.833056 12.713031 3.420620 -26.639801 -0.981008 0.356526 -1.817151 -1.368561 14.210319 13.443268 4.263894 55.307334 7.440993 10.750592 -1.794252 44.935061 2.503105 0.000000 0.000000 -0.000000 -3.512049 12.461884 -6.575825 -0.843718 -38.618053 -13.298447 0.000000 -0.000000 -0.000000 -3.442652 -54.276143 -10.537166 -8.311292 -0.275186 20.886068 
3.271391 1.433425 -5.889203 173.997892 -14.104292 -177.867805 -0.000000 -0.000000 0.000000 -8.731072 0.821554 5.443428 0.273297 -1.177815 -1.376240 0.000000 0.000000 0.000000 0.788604 -1.334166 -1.011348 2.097097 -23.815456 -9.752780 -0.112743 -0.933195 -1.713111 2.069073 -8.623600 1.257840 -84.290360 -22.948585 12.772782 3.550130 -28.715621 -1.108861 0.313108 -1.700734 -1.337960 13.874530 13.659436 4.305478 55.283854 7.533229 10.533327 -1.922135 45.093486 2.352408 0.000000 0.000000 -0.000000 -3.614867 11.998855 -7.162892 -1.257599 -38.476597 -12.417851 0.000000 -0.000000 -0.000000 -3.859923 -55.388238 -10.042962 -7.343862 0.770852 20.728861 
3.356828 1.478960 -6.003944 173.667270 -14.373696 -177.736696 -0.000000 -0.000000 0.000000 -9.037110 0.854619 5.699617 0.187387 -1.105770 -1.324396 0.000000 0.000000 0.000000 0.746361 -1.306169 -0.972626 1.862457 -21.626800 -10.948895 -0.152903 -0.851243 -1.642079 2.083907 -8.757940 1.282477 -83.953751 -23.068667 12.840300 3.755215 -31.713202 -1.253648 0.277593 -1.607730 -1.211577 13.548233 14.013315 4.377822 55.251408 7.706494 10.206333 -2.022709 45.412603 2.216179 0.000000 0.000000 -0.000000 -3.749187 11.590305 -7.777300 -1.731499 -38.399475 -11.403183 0.000000 -0.000000 -0.000000 -4.296145 -56.786899 -9.569643 -6.304947 1.873184 20.732653 
3.446151 1.521020 -6.115229 173.338518 -15.052191 -177.571793 -0.000000 -0.000000 0.000000 -9.406831 0.790060 5.949394 0.098828 -1.064646 -1.204679 0.000000 0.000000 0.000000 0.707539 -1.292479 -0.900453 1.535977 -19.288108 -12.133359 -0.190261 -0.836747 -1.547980 2.101843 -8.903927 1.298104 -83.619564 -23.201298 12.890760 4.026740 -35.374536 -1.481121 0.244750 -1.537099 -1.111305 13.262989 14.483624 4.440561 55.222971 7.957565 9.842809 -2.118986 45.948273 2.072813 0.000000 0.000000 -0.000000 -3.918703 11.290275 -8.368341 -2.284986 -38.484672 -10.249645 0.000000 -0.000000 -0.000000 -4.667976 -58.165777 -9.112884 -5.163549 3.100589 20.813158 
3.532517 1.560013 -6.224498 173.037038 -15.991000 -177.398427 -0.000000 -0.000000 0.000000 -9.871112 0.669535 6.227769 -0.007696 -1.055558 -1.037874 0.000000 0.000000 0.000000 0.647936 -1.293287 -0.804012 1.258715 -16.891047 -13.226063 -0.238792 -0.828112 -1.438024 2.112577 -9.039293 1.332312 -83.272834 -23.367719 12.913747 4.345986 -38.760045 -1.724497 0.207661 -1.475382 -1.083114 12.972446 15.032789 4.468085 55.198152 8.258009 9.456045 -2.232595 46.705727 1.900470 0.000000 0.000000 -0.000000 -4.085911 11.116508 -8.902036 -2.944822 -38.716701 -8.928896 0.000000 -0.000000 -0.000000 -4.788732 -59.406925 -8.780775 -5.298023 3.549442 20.916584 
3.618779 1.599875 -6.332654 172.771783 -16.877883 -177.245225 -0.000000 -0.000000 0.000000 -10.309124 0.628997 6.437790 -0.128621 -1.065947 -0.864777 0.000000 0.000000 0.000000 0.555429 -1.307722 -0.710841 1.097746 -14.597913 -14.202113 -0.303780 -0.833922 -1.307483 2.128185 -9.172538 1.370284 -82.884539 -23.580997 12.887883 4.726576 -41.895950 -1.961009 0.144451 -1.438028 -1.057521 12.681393 15.618087 4.452366 55.203614 8.561008 9.180125 -2.312291 47.610469 1.773175 0.000000 0.000000 -0.000000 -4.293648 11.049233 -9.461405 -3.801866 -39.246904 -7.421521 0.000000 -0.000000 -0.000000 -4.873449 -60.469494 -8.506704 -5.550164 3.883679 21.050363 
3.711230 1.643386 -6.440131 172.528831 -17.487840 -177.105487 -0.000000 -0.000000 0.000000 -10.567687 0.650240 6.457924 -0.268503 -1.097562 -0.661431 0.000000 0.000000 0.000000 0.444339 -1.324051 -0.581910 0.956619 -12.569963 -15.072235 -0.379755 -0.849473 -1.185280 2.153013 -9.295779 1.395041 -82.516615 -23.762548 12.809975 5.145305 -44.697453 -2.208709 0.060752 -1.428342 -1.049055 12.406383 16.247534 4.395938 55.242116 8.814535 9.034137 -2.363284 48.671431 1.690616 0.000000 0.000000 -0.000000 -4.484564 11.013768 -9.867724 -4.716600 -39.920193 -5.984583 0.000000 -0.000000 -0.000000 -4.882179 -61.292326 -8.376415 -5.793572 4.168579 21.244855 
3.816368 1.698226 -6.547204 172.261307 -17.656213 -177.003014 -0.000000 -0.000000 0.000000 -10.802473 0.642458 6.500510 -0.405791 -1.142216 -0.474527 0.000000 0.000000 0.000000 0.336693 -1.348844 -0.448903 0.807851 -10.434204 -15.975024 -0.455098 -0.873281 -1.074422 2.187378 -9.432559 1.414423 -82.144745 -23.925686 12.759371 5.575597 -47.182148 -2.459980 -0.024242 -1.433668 -1.050322 12.173913 16.898414 4.290427 55.320919 9.010885 9.027908 -2.460962 49.868920 1.571667 0.000000 0.000000 -0.000000 -4.670454 11.056261 -10.144913 -5.647353 -40.772396 -4.676829 0.000000 -0.000000 -0.000000 -4.774843 -61.851240 -8.432111 -6.043528 4.416479 21.366122 
3.936583 1.784203 -6.654119 171.981567 -17.405365 -176.955531 -0.000000 -0.000000 0.000000 -11.048370 0.603257 6.644149 -0.536292 -1.198175 -0.296492 0.000000 0.000000 0.000000 0.230679 -1.377326 -0.329562 0.591423 -8.241623 -16.874076 -0.528737 -0.898902 -0.988375 2.252447 -9.610871 1.424249 -81.770803 -24.044945 12.717765 6.020256 -49.326563 -2.677770 -0.111312 -1.449352 -1.054507 11.984514 17.528322 4.121993 55.436482 9.127401 9.177133 -2.629776 51.220331 1.405376 0.000000 0.000000 -0.000000 -4.887947 11.252049 -10.308964 -6.647077 -42.058200 -3.507798 0.000000 -0.000000 -0.000000 -4.410001 -61.939783 -8.805767 -6.289609 4.542255 21.434484 
4.070404 1.908545 -6.763267 171.709426 -16.847445 -176.964916 -0.000000 -0.000000 0.000000 -11.257030 0.520350 6.861885 -0.674493 -1.262793 -0.149133 0.000000 0.000000 0.000000 0.103953 -1.403124 -0.243170 0.238494 -6.329510 -17.467353 -0.607747 -0.926507 -0.957010 2.330611 -9.751379 1.422397 -81.367979 -24.162353 12.701116 6.464530 -51.157252 -2.886507 -0.214218 -1.482708 -1.077728 11.848538 18.099544 3.878925 55.589948 9.137774 9.464167 -2.879044 52.760010 1.185561 0.000000 0.000000 -0.000000 -5.071363 11.542389 -10.337988 -7.512791 -43.224969 -2.561176 -0.000000 0.000000 -0.000000 -3.613763 -61.397473 -9.655756 -6.366080 4.648482 21.437969 
